<svg xmlns="http://www.w3.org/2000/svg" xmlns:cc="http://web.resource.org/cc/" xmlns:svg="http://www.w3.org/2000/svg" xmlns:xlink="http://www.w3.org/1999/xlink" id="svg6941" width="16" height="16"><defs id="defs6943"><linearGradient id="linearGradient5899"><stop style="stop-color:#fce94f;stop-opacity:1" id="stop5901" offset="0"/><stop style="stop-color:#edd400;stop-opacity:1" id="stop5903" offset="1"/></linearGradient><radialGradient id="radialGradient5905" cx="9.466" cy="8.984" r="6.747" fx="9.466" fy="8.984" gradientTransform="matrix(1.1671849,-3.2679277e-3,2.7524467e-3,1.0150183,-1.6222549,-0.2024225)" gradientUnits="userSpaceOnUse" xlink:href="#linearGradient5899"/></defs><metadata id="metadata6946"/><g id="layer1"><path style="opacity:1;fill:url(#radialGradient5905);fill-opacity:1;stroke:#8d7300;stroke-width:.97113222;stroke-linecap:round;stroke-linejoin:round;stroke-miterlimit:4;stroke-dasharray:none;stroke-dashoffset:0;stroke-opacity:1" id="path4926" d="M 14.235644 7.7221532 A 6.2618814 6.3632426 0 1 1 1.7118812,7.7221532 A 6.2618814 6.3632426 0 1 1 14.235644 7.7221532 z" transform="matrix(1.0380267,0,0,1.0214918,-0.2769782,0.1118841)"/><path style="opacity:.6;fill:none;fill-opacity:1;stroke:#fff;stroke-width:1.14770162;stroke-linecap:round;stroke-linejoin:round;stroke-miterlimit:4;stroke-dasharray:none;stroke-dashoffset:0;stroke-opacity:1" id="path5897" d="M 14.235644 7.7221532 A 6.2618814 6.3632426 0 1 1 1.7118812,7.7221532 A 6.2618814 6.3632426 0 1 1 14.235644 7.7221532 z" transform="matrix(0.8783303,0,0,0.8643392,0.996403,1.3254404)"/><rect style="opacity:1;fill:#eeeeec;fill-opacity:1;stroke:#888a85;stroke-width:.99999994;stroke-linecap:round;stroke-linejoin:miter;stroke-miterlimit:4;stroke-dasharray:none;stroke-dashoffset:0;stroke-opacity:1" id="rect5886" width="9" height="9" x="5.5" y="5.5" rx="0" ry="0"/><rect style="opacity:1;fill:none;fill-opacity:1;stroke:#fff;stroke-width:1;stroke-linecap:round;stroke-linejoin:miter;stroke-miterlimit:4;stroke-dasharray:none;stroke-dashoffset:0;stroke-opacity:1" id="rect5969" width="7" height="7" x="6.5" y="6.5" rx="0" ry="0"/><path style="opacity:1;fill:#8d7300;fill-opacity:1;stroke:none;stroke-width:1.46393549;stroke-linecap:round;stroke-linejoin:miter;stroke-miterlimit:4;stroke-dasharray:none;stroke-dashoffset:0;stroke-opacity:1" id="path5888" d="M 12.118317 7.8460393 A 1.4415842 1.4866337 0 1 1 9.2351488,7.8460393 A 1.4415842 1.4866337 0 1 1 12.118317 7.8460393 z" transform="matrix(0.6936814,0,0,0.6726606,2.5937487,2.7222784)"/><path style="fill:none;fill-rule:evenodd;stroke:#888a85;stroke-width:.99999994px;stroke-linecap:round;stroke-linejoin:miter;stroke-opacity:1" id="path5883" d="M 7.4772272,10.5 L 11.522773,10.5"/><path style="fill:none;fill-rule:evenodd;stroke:#888a85;stroke-width:1px;stroke-linecap:round;stroke-linejoin:miter;stroke-opacity:1" id="path5885" d="M 7.4872926,12.5 L 11.524094,12.5"/></g></svg>