<svg xmlns="http://www.w3.org/2000/svg" xmlns:svg="http://www.w3.org/2000/svg" id="svg7384" width="16" height="16" version="1.1"><metadata id="metadata90"/><title id="title9167">Gnome Symbolic Icon Theme</title><g id="layer9" transform="translate(-183.0227,-175.08839)" style="display:inline"><path id="rect12460" d="m 186.36647,175.08839 c -1.86075,0 -3.34375,1.483 -3.34375,3.34375 l 0,5.3125 c 0,1.86075 1.483,3.34375 3.34375,3.34375 l 5.65625,0 0,4 3,-4 0.65625,0 c 1.86075,0 3.34375,-1.483 3.34375,-3.34375 l 0,-5.3125 c 0,-1.86075 -1.483,-3.34375 -3.34375,-3.34375 z m 4.65625,2 c 2.20914,0 4,1.79086 4,4 0,2.20914 -1.79086,4 -4,4 -2.20914,0 -4,-1.79086 -4,-4 0,-2.20914 1.79086,-4 4,-4 z m -1.5,1.35937 c -0.27593,0 -0.5,0.31625 -0.5,0.6875 l 0,0.65625 c 0,0.37126 0.22407,0.65625 0.5,0.65625 0.27592,0 0.5,-0.28499 0.5,-0.65625 l 0,-0.65625 c 0,-0.37125 -0.22408,-0.6875 -0.5,-0.6875 z m 3,0 c -0.27593,0 -0.5,0.31625 -0.5,0.6875 l 0,0.65625 c 0,0.37126 0.22499,0.65625 0.5,0.65625 0.27501,0 0.5,-0.28499 0.5,-0.65625 l 0,-0.65625 c 0,-0.37125 -0.22408,-0.6875 -0.5,-0.6875 z m -4.5,2.19869 0,0.81694 c 0,0.36063 0.64206,1.625 2.96875,1.625 2.49531,0 3.03125,-1.16381 3.03125,-1.625 l 0,-0.77275 C 193.54958,181.49459 192.94783,182 190.99147,182 c -2.01112,0 -2.53989,-0.62591 -2.96875,-1.35355 z" style="fill:#bebebe;fill-opacity:1;stroke:none"/></g></svg>