<svg xmlns="http://www.w3.org/2000/svg" xmlns:cc="http://web.resource.org/cc/" xmlns:svg="http://www.w3.org/2000/svg" xmlns:xlink="http://www.w3.org/1999/xlink" id="svg4908" width="16" height="16"><defs id="defs4910"><linearGradient id="linearGradient5917"><stop style="stop-color:#d80000;stop-opacity:1" id="stop5919" offset="0"/><stop style="stop-color:#ca0000;stop-opacity:1" id="stop5921" offset="1"/></linearGradient><linearGradient id="linearGradient5923" x1="6.51" x2="9.911" y1="8.589" y2="11.54" gradientTransform="matrix(1.1538462,0,0,1.0752822,-1.2307693,-0.1129232)" gradientUnits="userSpaceOnUse" xlink:href="#linearGradient5917"/></defs><metadata id="metadata4913"/><g id="layer1"><path style="fill:url(#linearGradient5923);fill-opacity:1;fill-rule:evenodd;stroke:#8a0000;stroke-width:1px;stroke-linecap:round;stroke-linejoin:round;stroke-opacity:1" id="path4944" d="M 0.5,14.5 L 15.5,14.5 L 7.975762,1.5 L 0.5,14.5 z"/><path style="opacity:.3;fill:none;fill-rule:evenodd;stroke:#fff;stroke-width:.99999994px;stroke-linecap:butt;stroke-linejoin:miter;stroke-opacity:1" id="path4946" d="M 2.2790289,13.5 L 13.779497,13.5 L 8.0106803,3.5000001 L 2.2790289,13.5 z"/><path style="opacity:1;fill:#ffe680;fill-opacity:1;stroke:#555753;stroke-width:.8123197;stroke-linecap:round;stroke-linejoin:miter;stroke-miterlimit:4;stroke-dasharray:none;stroke-dashoffset:0;stroke-opacity:1" id="path4911" d="M 15.625 11.890625 A 4.53125 3.640625 0 1 1 6.5625,11.890625 A 4.53125 3.640625 0 1 1 15.625 11.890625 z" transform="matrix(0.983072,0,0,1.223563,-1.005946,-3.448939)"/><path style="opacity:1;fill:none;fill-opacity:1;stroke:#fff;stroke-width:1.01539958;stroke-linecap:round;stroke-linejoin:miter;stroke-miterlimit:4;stroke-dasharray:none;stroke-dashoffset:0;stroke-opacity:1" id="path5882" d="M 15.625 11.890625 A 4.53125 3.640625 0 1 1 6.5625,11.890625 A 4.53125 3.640625 0 1 1 15.625 11.890625 z" transform="matrix(0.786458,0,0,0.978852,1.175241,-0.539149)"/><path style="fill:none;fill-rule:evenodd;stroke:#000;stroke-width:.91149789px;stroke-linecap:round;stroke-linejoin:round;marker-mid:none;stroke-opacity:1" id="path5884" d="M 10.027723,8.0394381 L 10.027723,11.229682 L 6.8944493,11.229682"/><path style="opacity:.33695655;fill:#fff;fill-opacity:1;fill-rule:evenodd;stroke:none;stroke-width:1px;stroke-linecap:butt;stroke-linejoin:miter;stroke-opacity:1" id="path5886" d="M 5.8909083,11.545458 C 9.3617367,11.656825 9.9649551,9.8471677 13.714194,9.8750085 C 13.073853,8.0931929 11.598288,7.100202 9.8999937,7.0909217 C 8.1738593,7.0816413 5.9187492,8.9469795 5.8909083,11.545458 z"/></g></svg>